# MagicaVoxel @ Ephtracy

# group
o 

# material
mtllib rail.mtl
usemtl palette

# normals
vn -1 0 0
vn 1 0 0
vn 0 0 1
vn 0 0 -1
vn 0 -1 0
vn 0 1 0

# texcoords
vt 0.537109 0.5
vt 0.986328 0.5
vt 0.994141 0.5

# verts
v -2 0 2
v -2 0 -2
v -2 0.2 2
v -2 0.2 -2
v 1.7 0 1.5
v 1.7 0 1
v 1.7 0 0.5
v 1.7 0 -2.38419e-07
v 1.7 0 -0.5
v 1.7 0 -1
v 1.7 0 -1.5
v 1.7 0 -2
v 1.7 0.1 2
v 1.7 0.1 1.5
v 1.7 0.1 1
v 1.7 0.1 0.5
v 1.7 0.1 -2.38419e-07
v 1.7 0.1 -0.5
v 1.7 0.1 -1
v 1.7 0.1 -1.5
v 1.7 0.2 2
v 1.7 0.2 -2
v -1.7 0 1.5
v -1.7 0 1
v -1.7 0 0.5
v -1.7 0 -2.38419e-07
v -1.7 0 -0.5
v -1.7 0 -1
v -1.7 0 -1.5
v -1.7 0 -2
v -1.7 0.1 2
v -1.7 0.1 1.5
v -1.7 0.1 1
v -1.7 0.1 0.5
v -1.7 0.1 -2.38419e-07
v -1.7 0.1 -0.5
v -1.7 0.1 -1
v -1.7 0.1 -1.5
v -1.7 0.2 2
v -1.7 0.2 -2
v 2 0 2
v 2 0 -2
v 2 0.2 2
v 2 0.2 -2
v -2 0 2
v -2 0.2 2
v -1.7 0 2
v -1.7 0.1 2
v -1.7 0.2 2
v -1.6 0 2
v -1.6 0.1 2
v 1.6 0 2
v 1.6 0.1 2
v 1.7 0 2
v 1.7 0.1 2
v 1.7 0.2 2
v 2 0 2
v 2 0.2 2
v -1.7 0 1
v -1.7 0.1 1
v -1.6 0 1
v -1.6 0.1 1
v 1.6 0 1
v 1.6 0.1 1
v 1.7 0 1
v 1.7 0.1 1
v -1.7 0 -2.38419e-07
v -1.7 0.1 -2.38419e-07
v -1.6 0 -2.38419e-07
v -1.6 0.1 -2.38419e-07
v 1.6 0 -2.38419e-07
v 1.6 0.1 -2.38419e-07
v 1.7 0 -2.38419e-07
v 1.7 0.1 -2.38419e-07
v -1.7 0 -1
v -1.7 0.1 -1
v -1.6 0 -1
v -1.6 0.1 -1
v 1.6 0 -1
v 1.6 0.1 -1
v 1.7 0 -1
v 1.7 0.1 -1
v -1.7 0 1.5
v -1.7 0.1 1.5
v -1.6 0 1.5
v -1.6 0.1 1.5
v 1.6 0 1.5
v 1.6 0.1 1.5
v 1.7 0 1.5
v 1.7 0.1 1.5
v -1.7 0 0.5
v -1.7 0.1 0.5
v -1.6 0 0.5
v -1.6 0.1 0.5
v 1.6 0 0.5
v 1.6 0.1 0.5
v 1.7 0 0.5
v 1.7 0.1 0.5
v -1.7 0 -0.5
v -1.7 0.1 -0.5
v -1.6 0 -0.5
v -1.6 0.1 -0.5
v 1.6 0 -0.5
v 1.6 0.1 -0.5
v 1.7 0 -0.5
v 1.7 0.1 -0.5
v -1.7 0 -1.5
v -1.7 0.1 -1.5
v -1.6 0 -1.5
v -1.6 0.1 -1.5
v 1.6 0 -1.5
v 1.6 0.1 -1.5
v 1.7 0 -1.5
v 1.7 0.1 -1.5
v -2 0 -2
v -2 0.2 -2
v -1.7 0 -2
v -1.7 0.2 -2
v 1.7 0 -2
v 1.7 0.2 -2
v 2 0 -2
v 2 0.2 -2
v -2 0 2
v -1.7 0 2
v -1.6 0 2
v 1.6 0 2
v 1.7 0 2
v 2 0 2
v -1.7 0 1.5
v -1.6 0 1.5
v 1.6 0 1.5
v 1.7 0 1.5
v -1.7 0 1
v -1.6 0 1
v 1.6 0 1
v 1.7 0 1
v -1.7 0 0.5
v -1.6 0 0.5
v 1.6 0 0.5
v 1.7 0 0.5
v -1.7 0 -2.38419e-07
v -1.6 0 -2.38419e-07
v 1.6 0 -2.38419e-07
v 1.7 0 -2.38419e-07
v -1.7 0 -0.5
v -1.6 0 -0.5
v 1.6 0 -0.5
v 1.7 0 -0.5
v -1.7 0 -1
v -1.6 0 -1
v 1.6 0 -1
v 1.7 0 -1
v -1.7 0 -1.5
v -1.6 0 -1.5
v 1.6 0 -1.5
v 1.7 0 -1.5
v -2 0 -2
v -1.7 0 -2
v 1.7 0 -2
v 2 0 -2
v -1.7 0.1 2
v -1.6 0.1 2
v 1.6 0.1 2
v 1.7 0.1 2
v -1.7 0.1 1.5
v -1.6 0.1 1.5
v 1.6 0.1 1.5
v 1.7 0.1 1.5
v -1.7 0.1 1
v -1.6 0.1 1
v 1.6 0.1 1
v 1.7 0.1 1
v -1.7 0.1 0.5
v -1.6 0.1 0.5
v 1.6 0.1 0.5
v 1.7 0.1 0.5
v -1.7 0.1 -2.38419e-07
v -1.6 0.1 -2.38419e-07
v 1.6 0.1 -2.38419e-07
v 1.7 0.1 -2.38419e-07
v -1.7 0.1 -0.5
v -1.6 0.1 -0.5
v 1.6 0.1 -0.5
v 1.7 0.1 -0.5
v -1.7 0.1 -1
v -1.6 0.1 -1
v 1.6 0.1 -1
v 1.7 0.1 -1
v -1.7 0.1 -1.5
v -1.6 0.1 -1.5
v 1.6 0.1 -1.5
v 1.7 0.1 -1.5
v -2 0.2 2
v -1.7 0.2 2
v 1.7 0.2 2
v 2 0.2 2
v -2 0.2 -2
v -1.7 0.2 -2
v 1.7 0.2 -2
v 2 0.2 -2

# faces
f 3/3/1 2/3/1 1/3/1
f 4/3/1 2/3/1 3/3/1
f 14/3/1 6/3/1 5/3/1
f 15/3/1 6/3/1 14/3/1
f 16/3/1 8/3/1 7/3/1
f 17/3/1 8/3/1 16/3/1
f 18/3/1 10/3/1 9/3/1
f 19/3/1 10/3/1 18/3/1
f 20/3/1 12/3/1 11/3/1
f 21/3/1 19/3/1 18/3/1
f 21/3/1 20/3/1 19/3/1
f 21/3/1 15/3/1 14/3/1
f 21/3/1 17/3/1 16/3/1
f 21/3/1 18/3/1 17/3/1
f 21/3/1 14/3/1 13/3/1
f 21/3/1 16/3/1 15/3/1
f 22/3/1 12/3/1 20/3/1
f 22/3/1 20/3/1 21/3/1
f 23/3/2 24/3/2 32/3/2
f 32/3/2 24/3/2 33/3/2
f 25/3/2 26/3/2 34/3/2
f 34/3/2 26/3/2 35/3/2
f 27/3/2 28/3/2 36/3/2
f 36/3/2 28/3/2 37/3/2
f 29/3/2 30/3/2 38/3/2
f 36/3/2 37/3/2 39/3/2
f 37/3/2 38/3/2 39/3/2
f 32/3/2 33/3/2 39/3/2
f 34/3/2 35/3/2 39/3/2
f 35/3/2 36/3/2 39/3/2
f 31/3/2 32/3/2 39/3/2
f 33/3/2 34/3/2 39/3/2
f 38/3/2 30/3/2 40/3/2
f 39/3/2 38/3/2 40/3/2
f 41/3/2 42/3/2 43/3/2
f 43/3/2 42/3/2 44/3/2
f 47/3/3 46/3/3 45/3/3
f 48/3/3 46/3/3 47/3/3
f 49/3/3 46/3/3 48/3/3
f 50/2/3 48/2/3 47/2/3
f 51/2/3 48/2/3 50/2/3
f 52/1/3 51/1/3 50/1/3
f 53/1/3 51/1/3 52/1/3
f 54/2/3 53/2/3 52/2/3
f 55/2/3 53/2/3 54/2/3
f 57/3/3 55/3/3 54/3/3
f 57/3/3 56/3/3 55/3/3
f 58/3/3 56/3/3 57/3/3
f 61/2/3 60/2/3 59/2/3
f 62/2/3 60/2/3 61/2/3
f 63/1/3 62/1/3 61/1/3
f 64/1/3 62/1/3 63/1/3
f 65/2/3 64/2/3 63/2/3
f 66/2/3 64/2/3 65/2/3
f 69/2/3 68/2/3 67/2/3
f 70/2/3 68/2/3 69/2/3
f 71/1/3 70/1/3 69/1/3
f 72/1/3 70/1/3 71/1/3
f 73/2/3 72/2/3 71/2/3
f 74/2/3 72/2/3 73/2/3
f 77/2/3 76/2/3 75/2/3
f 78/2/3 76/2/3 77/2/3
f 79/1/3 78/1/3 77/1/3
f 80/1/3 78/1/3 79/1/3
f 81/2/3 80/2/3 79/2/3
f 82/2/3 80/2/3 81/2/3
f 83/2/4 84/2/4 85/2/4
f 85/2/4 84/2/4 86/2/4
f 85/1/4 86/1/4 87/1/4
f 87/1/4 86/1/4 88/1/4
f 87/2/4 88/2/4 89/2/4
f 89/2/4 88/2/4 90/2/4
f 91/2/4 92/2/4 93/2/4
f 93/2/4 92/2/4 94/2/4
f 93/1/4 94/1/4 95/1/4
f 95/1/4 94/1/4 96/1/4
f 95/2/4 96/2/4 97/2/4
f 97/2/4 96/2/4 98/2/4
f 99/2/4 100/2/4 101/2/4
f 101/2/4 100/2/4 102/2/4
f 101/1/4 102/1/4 103/1/4
f 103/1/4 102/1/4 104/1/4
f 103/2/4 104/2/4 105/2/4
f 105/2/4 104/2/4 106/2/4
f 107/2/4 108/2/4 109/2/4
f 109/2/4 108/2/4 110/2/4
f 109/1/4 110/1/4 111/1/4
f 111/1/4 110/1/4 112/1/4
f 111/2/4 112/2/4 113/2/4
f 113/2/4 112/2/4 114/2/4
f 115/3/4 116/3/4 117/3/4
f 117/3/4 116/3/4 118/3/4
f 119/3/4 120/3/4 121/3/4
f 121/3/4 120/3/4 122/3/4
f 129/3/5 124/3/5 123/3/5
f 129/2/5 125/2/5 124/2/5
f 130/1/5 126/1/5 125/1/5
f 130/2/5 125/2/5 129/2/5
f 131/2/5 127/2/5 126/2/5
f 131/1/5 126/1/5 130/1/5
f 132/3/5 128/3/5 127/3/5
f 132/2/5 127/2/5 131/2/5
f 133/3/5 129/3/5 123/3/5
f 136/3/5 128/3/5 132/3/5
f 137/3/5 133/3/5 123/3/5
f 137/2/5 134/2/5 133/2/5
f 138/1/5 135/1/5 134/1/5
f 138/2/5 134/2/5 137/2/5
f 139/2/5 136/2/5 135/2/5
f 139/1/5 135/1/5 138/1/5
f 140/3/5 128/3/5 136/3/5
f 140/2/5 136/2/5 139/2/5
f 141/3/5 137/3/5 123/3/5
f 144/3/5 128/3/5 140/3/5
f 145/3/5 141/3/5 123/3/5
f 145/2/5 142/2/5 141/2/5
f 146/1/5 143/1/5 142/1/5
f 146/2/5 142/2/5 145/2/5
f 147/2/5 144/2/5 143/2/5
f 147/1/5 143/1/5 146/1/5
f 148/3/5 128/3/5 144/3/5
f 148/2/5 144/2/5 147/2/5
f 149/3/5 145/3/5 123/3/5
f 152/3/5 128/3/5 148/3/5
f 153/3/5 149/3/5 123/3/5
f 153/2/5 150/2/5 149/2/5
f 154/1/5 151/1/5 150/1/5
f 154/2/5 150/2/5 153/2/5
f 155/2/5 152/2/5 151/2/5
f 155/1/5 151/1/5 154/1/5
f 156/3/5 128/3/5 152/3/5
f 156/2/5 152/2/5 155/2/5
f 157/3/5 153/3/5 123/3/5
f 158/3/5 153/3/5 157/3/5
f 159/3/5 128/3/5 156/3/5
f 160/3/5 128/3/5 159/3/5
f 161/2/6 162/2/6 165/2/6
f 162/1/6 163/1/6 166/1/6
f 165/2/6 162/2/6 166/2/6
f 163/2/6 164/2/6 167/2/6
f 166/1/6 163/1/6 167/1/6
f 167/2/6 164/2/6 168/2/6
f 169/2/6 170/2/6 173/2/6
f 170/1/6 171/1/6 174/1/6
f 173/2/6 170/2/6 174/2/6
f 171/2/6 172/2/6 175/2/6
f 174/1/6 171/1/6 175/1/6
f 175/2/6 172/2/6 176/2/6
f 177/2/6 178/2/6 181/2/6
f 178/1/6 179/1/6 182/1/6
f 181/2/6 178/2/6 182/2/6
f 179/2/6 180/2/6 183/2/6
f 182/1/6 179/1/6 183/1/6
f 183/2/6 180/2/6 184/2/6
f 185/2/6 186/2/6 189/2/6
f 186/1/6 187/1/6 190/1/6
f 189/2/6 186/2/6 190/2/6
f 187/2/6 188/2/6 191/2/6
f 190/1/6 187/1/6 191/1/6
f 191/2/6 188/2/6 192/2/6
f 193/3/6 194/3/6 197/3/6
f 197/3/6 194/3/6 198/3/6
f 195/3/6 196/3/6 199/3/6
f 199/3/6 196/3/6 200/3/6
