# MagicaVoxel @ Ephtracy

# group
o 

# material
mtllib waterlilies.mtl
usemtl palette

# normals
vn -1 0 0
vn 1 0 0
vn 0 0 1
vn 0 0 -1
vn 0 -1 0
vn 0 1 0

# texcoords
vt 0.326172 0.5
vt 0.896484 0.5

# verts
v -1.3 0 0.9
v -1.3 0 -0.6
v -1.3 0.3 -0.1
v -1.3 0.3 -0.6
v -1.3 0.4 0.8
v -1.3 0.4 0.6
v -1.3 0.4 0.4
v -1.3 0.4 -0.1
v -1.3 0.5 0.9
v -1.3 0.5 0.8
v -1.3 0.5 0.6
v -1.3 0.5 0.4
v -0.9 0 1.3
v -0.9 0 0.9
v -0.9 0 -0.6
v -0.9 0 -1
v -0.9 0.3 -0.6
v -0.9 0.3 -1
v -0.9 0.4 1.3
v -0.9 0.4 1.1
v -0.9 0.5 1.3
v -0.9 0.5 1.1
v -0.9 0.5 0.9
v -0.4 0.3 -0.1
v -0.4 0.3 -1
v -0.4 0.4 -0.1
v -0.4 0.4 -1
v -0.0999999 0 1.5
v -0.0999999 0 1.3
v -0.0999999 0.4 1.3
v -0.0999999 0.5 1.5
v -0.0999999 0.5 1.3
v 0.1 0.4 0.4
v 0.1 0.4 -1
v 0.1 0.5 0.4
v 0.1 0.5 -1
v 0.6 0 -0.7
v 0.6 0 -1
v 0.6 0.5 -0.7
v 0.6 0.5 -1
v 1 0 0.1
v 1 0 -0.7
v 1 0.4 0.1
v 1 0.4 -0.7
v 1 0.5 0.1
v 1 0.5 -0.7
v 1.2 0 1.5
v 1.2 0 0.1
v 1.2 0.5 1.5
v 1.2 0.5 0.1
v -0.0999999 0 1.5
v -0.0999999 0.5 1.5
v 1.2 0 1.5
v 1.2 0.5 1.5
v -0.9 0 1.3
v -0.9 0.4 1.3
v -0.9 0.5 1.3
v -0.0999999 0 1.3
v -0.0999999 0.4 1.3
v -0.0999999 0.5 1.3
v -1.3 0 0.9
v -1.3 0.5 0.9
v -0.9 0 0.9
v -0.9 0.5 0.9
v -1.3 0.4 0.4
v -1.3 0.5 0.4
v 0.1 0.4 0.4
v 0.1 0.5 0.4
v 1 0 0.1
v 1 0.4 0.1
v 1 0.5 0.1
v 1.2 0 0.1
v 1.2 0.5 0.1
v -1.3 0.3 -0.1
v -1.3 0.4 -0.1
v -0.4 0.3 -0.1
v -0.4 0.4 -0.1
v -1.3 0 -0.6
v -1.3 0.3 -0.6
v -0.9 0 -0.6
v -0.9 0.3 -0.6
v 0.6 0 -0.7
v 0.6 0.5 -0.7
v 0.8 0.4 -0.7
v 0.8 0.5 -0.7
v 1 0 -0.7
v 1 0.4 -0.7
v 1 0.5 -0.7
v -0.9 0 -1
v -0.9 0.3 -1
v -0.4 0.3 -1
v -0.4 0.4 -1
v 0.1 0.4 -1
v 0.1 0.5 -1
v 0.3 0.4 -1
v 0.3 0.5 -1
v 0.5 0.4 -1
v 0.5 0.5 -1
v 0.6 0 -1
v 0.6 0.5 -1
v -0.0999999 0 1.5
v 1.2 0 1.5
v -0.9 0 1.3
v -0.0999999 0 1.3
v -1.3 0 0.9
v -0.9 0 0.9
v 1 0 0.1
v 1.2 0 0.1
v -1.3 0 -0.6
v -0.9 0 -0.6
v 0.6 0 -0.7
v 1 0 -0.7
v -0.9 0 -1
v 0.6 0 -1
v -1.3 0.3 -0.1
v -0.4 0.3 -0.1
v -1.3 0.3 -0.6
v -0.9 0.3 -0.6
v -0.9 0.3 -1
v -0.4 0.3 -1
v -1.3 0.4 0.4
v 0.1 0.4 0.4
v -1.3 0.4 -0.1
v -0.4 0.4 -0.1
v -0.4 0.4 -1
v 0.1 0.4 -1
v -0.0999999 0.5 1.5
v 1.2 0.5 1.5
v -0.9 0.5 1.3
v -0.0999999 0.5 1.3
v 1 0.5 1.3
v -0.9 0.5 1.1
v 0.8 0.5 1.1
v -1.3 0.5 0.9
v -0.9 0.5 0.9
v -1.3 0.5 0.8
v 0.5 0.5 0.8
v -1.3 0.5 0.6
v 0.3 0.5 0.6
v -1.3 0.5 0.4
v 0.1 0.5 0.4
v 1 0.5 0.1
v 1.2 0.5 0.1
v 0.6 0.5 -0.7
v 0.8 0.5 -0.7
v 1 0.5 -0.7
v 0.1 0.5 -1
v 0.3 0.5 -1
v 0.5 0.5 -1
v 0.6 0.5 -1

# faces
f 3/2/1 2/2/1 1/2/1
f 4/2/1 2/2/1 3/2/1
f 5/2/1 3/2/1 1/2/1
f 6/2/1 3/2/1 5/2/1
f 7/2/1 3/2/1 6/2/1
f 8/2/1 3/2/1 7/2/1
f 9/2/1 5/2/1 1/2/1
f 10/1/1 6/1/1 5/1/1
f 10/2/1 5/2/1 9/2/1
f 11/2/1 7/2/1 6/2/1
f 11/1/1 6/1/1 10/1/1
f 12/2/1 7/2/1 11/2/1
f 17/2/1 16/2/1 15/2/1
f 18/2/1 16/2/1 17/2/1
f 19/2/1 14/2/1 13/2/1
f 20/2/1 14/2/1 19/2/1
f 21/1/1 20/1/1 19/1/1
f 22/2/1 14/2/1 20/2/1
f 22/1/1 20/1/1 21/1/1
f 23/2/1 14/2/1 22/2/1
f 26/2/1 25/2/1 24/2/1
f 27/2/1 25/2/1 26/2/1
f 30/2/1 29/2/1 28/2/1
f 31/2/1 30/2/1 28/2/1
f 32/2/1 30/2/1 31/2/1
f 35/2/1 34/2/1 33/2/1
f 36/2/1 34/2/1 35/2/1
f 37/2/2 38/2/2 39/2/2
f 39/2/2 38/2/2 40/2/2
f 41/2/2 42/2/2 43/2/2
f 43/2/2 42/2/2 44/2/2
f 43/1/2 44/1/2 45/1/2
f 45/1/2 44/1/2 46/1/2
f 47/2/2 48/2/2 49/2/2
f 49/2/2 48/2/2 50/2/2
f 53/2/3 52/2/3 51/2/3
f 54/2/3 52/2/3 53/2/3
f 58/2/3 56/2/3 55/2/3
f 59/1/3 57/1/3 56/1/3
f 59/2/3 56/2/3 58/2/3
f 60/1/3 57/1/3 59/1/3
f 63/2/3 62/2/3 61/2/3
f 64/2/3 62/2/3 63/2/3
f 65/2/4 66/2/4 67/2/4
f 67/2/4 66/2/4 68/2/4
f 69/2/4 70/2/4 72/2/4
f 70/2/4 71/2/4 72/2/4
f 72/2/4 71/2/4 73/2/4
f 74/2/4 75/2/4 76/2/4
f 76/2/4 75/2/4 77/2/4
f 78/2/4 79/2/4 80/2/4
f 80/2/4 79/2/4 81/2/4
f 82/2/4 83/2/4 84/2/4
f 84/2/4 83/2/4 85/2/4
f 82/2/4 84/2/4 86/2/4
f 84/1/4 85/1/4 87/1/4
f 86/2/4 84/2/4 87/2/4
f 87/1/4 85/1/4 88/1/4
f 89/2/4 90/2/4 91/2/4
f 91/2/4 92/2/4 93/2/4
f 91/2/4 93/2/4 95/2/4
f 93/2/4 94/2/4 95/2/4
f 95/2/4 94/2/4 96/2/4
f 91/2/4 95/2/4 97/2/4
f 95/1/4 96/1/4 97/1/4
f 97/1/4 96/1/4 98/1/4
f 89/2/4 91/2/4 99/2/4
f 91/2/4 97/2/4 99/2/4
f 97/2/4 98/2/4 99/2/4
f 99/2/4 98/2/4 100/2/4
f 104/2/5 102/2/5 101/2/5
f 106/2/5 104/2/5 103/2/5
f 107/2/5 102/2/5 104/2/5
f 107/2/5 106/2/5 105/2/5
f 107/2/5 104/2/5 106/2/5
f 108/2/5 102/2/5 107/2/5
f 109/2/5 107/2/5 105/2/5
f 110/2/5 107/2/5 109/2/5
f 111/2/5 107/2/5 110/2/5
f 112/2/5 107/2/5 111/2/5
f 113/2/5 111/2/5 110/2/5
f 114/2/5 111/2/5 113/2/5
f 115/2/6 116/2/6 117/2/6
f 117/2/6 116/2/6 118/2/6
f 118/2/6 116/2/6 119/2/6
f 119/2/6 116/2/6 120/2/6
f 121/2/6 122/2/6 123/2/6
f 123/2/6 122/2/6 124/2/6
f 124/2/6 122/2/6 125/2/6
f 125/2/6 122/2/6 126/2/6
f 127/2/6 128/2/6 130/2/6
f 130/2/6 128/2/6 131/2/6
f 129/1/6 130/1/6 132/1/6
f 130/1/6 131/1/6 132/1/6
f 132/1/6 131/1/6 133/1/6
f 132/2/6 133/2/6 135/2/6
f 134/2/6 135/2/6 136/2/6
f 135/2/6 133/2/6 137/2/6
f 136/2/6 135/2/6 137/2/6
f 136/1/6 137/1/6 138/1/6
f 138/1/6 137/1/6 139/1/6
f 138/2/6 139/2/6 140/2/6
f 140/2/6 139/2/6 141/2/6
f 131/2/6 128/2/6 142/2/6
f 133/1/6 131/1/6 142/1/6
f 142/2/6 128/2/6 143/2/6
f 137/2/6 133/2/6 144/2/6
f 133/1/6 142/1/6 145/1/6
f 144/2/6 133/2/6 145/2/6
f 145/1/6 142/1/6 146/1/6
f 141/2/6 139/2/6 147/2/6
f 139/1/6 137/1/6 148/1/6
f 147/2/6 139/2/6 148/2/6
f 137/2/6 144/2/6 149/2/6
f 148/1/6 137/1/6 149/1/6
f 149/2/6 144/2/6 150/2/6
